<mxfile host="app.diagrams.net" modified="2023-10-06T17:16:30.642Z" agent="Mozilla/5.0 (X11; Linux x86_64) AppleWebKit/537.36 (KHTML, like Gecko) Chrome/114.0.0.0 Safari/537.36" version="22.0.3" etag="1U7NAPHzFeUYjrOKBRMt" type="github">
  <diagram name="PÃ¡gina-1" id="YKe6ZGgzqoObkCjaug9G">
    <mxGraphModel>
      <root>
        <mxCell id="0" />
        <mxCell id="1" parent="0" />
      </root>
    </mxGraphModel>
  </diagram>
</mxfile>
